<svg xmlns="http://www.w3.org/2000/svg" data-name="Layer 2" viewBox="0 0 28 35" x="0px" y="0px"><title>UI</title><path d="M24.515,7.143l-10-6a1,1,0,0,0-1.03,0l-10,6A1,1,0,0,0,3,8.083L3.638,15.7a10.059,10.059,0,0,0,4.468,7.574l5.339,3.56a1,1,0,0,0,1.11,0l5.339-3.56A10.059,10.059,0,0,0,24.362,15.7L25,8.083A1,1,0,0,0,24.515,7.143Zm-2.146,8.389a8.066,8.066,0,0,1-3.585,6.076L14,24.8l-4.784-3.19a8.066,8.066,0,0,1-3.585-6.076L5.048,8.537,14,3.166l8.952,5.371Z"/><path d="M10.707,12.293a1,1,0,0,0-1.414,1.414l3,3a1,1,0,0,0,1.414,0l5-5a1,1,0,0,0-1.414-1.414L13,14.586Z"/><text x="0" y="43" fill="#000000" font-size="5px" font-weight="bold" font-family="'Helvetica Neue', Helvetica, Arial-Unicode, Arial, Sans-serif">Created by Ilham Fitrotul Hayat</text><text x="0" y="48" fill="#000000" font-size="5px" font-weight="bold" font-family="'Helvetica Neue', Helvetica, Arial-Unicode, Arial, Sans-serif">from the Noun Project</text></svg>