<svg xmlns:dc="http://purl.org/dc/elements/1.1/" xmlns:cc="http://creativecommons.org/ns#" xmlns:rdf="http://www.w3.org/1999/02/22-rdf-syntax-ns#" xmlns:svg="http://www.w3.org/2000/svg" xmlns="http://www.w3.org/2000/svg" xmlns:sodipodi="http://sodipodi.sourceforge.net/DTD/sodipodi-0.dtd" xmlns:inkscape="http://www.inkscape.org/namespaces/inkscape" viewBox="0 0 8.4666667 10.583333625" version="1.1" x="0px" y="0px"><svg:g><svg:path style="color:#000000;font-style:normal;font-variant:normal;font-weight:normal;font-stretch:normal;font-size:medium;line-height:normal;font-family:sans-serif;font-variant-ligatures:normal;font-variant-position:normal;font-variant-caps:normal;font-variant-numeric:normal;font-variant-alternates:normal;font-feature-settings:normal;text-indent:0;text-align:start;text-decoration:none;text-decoration-line:none;text-decoration-style:solid;text-decoration-color:#000000;letter-spacing:normal;word-spacing:normal;text-transform:none;writing-mode:lr-tb;direction:ltr;text-orientation:mixed;dominant-baseline:auto;baseline-shift:baseline;text-anchor:start;white-space:normal;shape-padding:0;clip-rule:nonzero;display:inline;overflow:visible;visibility:visible;opacity:1;isolation:auto;mix-blend-mode:normal;color-interpolation:sRGB;color-interpolation-filters:linearRGB;solid-color:#000000;solid-opacity:1;vector-effect:none;fill:#000000;fill-opacity:1;fill-rule:nonzero;stroke:none;stroke-width:0.52916664;stroke-linecap:round;stroke-linejoin:round;stroke-miterlimit:4;stroke-dasharray:none;stroke-dashoffset:0;stroke-opacity:1;paint-order:normal;color-rendering:auto;image-rendering:auto;shape-rendering:auto;text-rendering:auto;enable-background:accumulate" d="m 0.94567883,1.1071678 c -0.518638,0 -0.94567899666665,0.42704 -0.94567899666665,0.945679 v 0.792716 1.02526 2.542998 c 0,0.518638 0.42704099666665,0.945678 0.94567899666665,0.945678 H 7.5235698 c 0.518639,0 0.943097,-0.42704 0.943097,-0.945678 v -2.542998 -1.02526 -0.792716 c 0,-0.518639 -0.424458,-0.945679 -0.943097,-0.945679 z m 0,0.529167 H 7.5235698 c 0.234635,0 0.41393,0.181878 0.41393,0.416512 v 0.529166 H 0.52916683 v -0.529166 c 0,-0.234634 0.181877,-0.416512 0.416512,-0.416512 z m -0.416512,1.474845 H 7.9374998 v 0.496094 H 0.52916683 Z m 0,1.02526 H 7.9374998 v 2.277381 c 0,0.234633 -0.179295,0.415995 -0.41393,0.415995 H 0.94567883 c -0.234635,0 -0.416512,-0.181362 -0.416512,-0.415995 z m 0.75395897,0.732772 a 0.26500129,0.26500129 0 0 0 0.02739,0.529167 h 1.847951 a 0.26464839,0.26464839 0 1 0 0,-0.529167 h -1.847951 a 0.26460987,0.26460987 0 0 0 -0.02739,0 z m 0.02739,0.792717 a 0.26464844,0.26464844 0 1 0 0,0.529166 h 0.789099 a 0.26464844,0.26464844 0 1 0 0,-0.529166 z"/></svg:g><text x="0" y="23.4666669" fill="#000000" font-size="5px" font-weight="bold" font-family="'Helvetica Neue', Helvetica, Arial-Unicode, Arial, Sans-serif">Created by Larea</text><text x="0" y="28.4666669" fill="#000000" font-size="5px" font-weight="bold" font-family="'Helvetica Neue', Helvetica, Arial-Unicode, Arial, Sans-serif">from the Noun Project</text></svg>