<?xml version="1.0"?>
<svg xmlns="http://www.w3.org/2000/svg" viewBox="0 0 64 64" width="512" height="512"><g id="lock-shield-protect-protection-security"><path d="M38.021,22.565,26,34.586l-6.364-6.364-1.414,1.414,7.071,7.071a1,1,0,0,0,1.414,0L39.435,23.979Z"/><path d="M59,42H58V39a7.006,7.006,0,0,0-4.31-6.46A24.46,24.46,0,0,0,54,28.82V11a.987.987,0,0,0-.7-.95l-25-8a.883.883,0,0,0-.6,0l-25,8A.987.987,0,0,0,2,11V28.82a24.937,24.937,0,0,0,8.92,19.14L27.36,61.77a1.005,1.005,0,0,0,1.28,0L36,55.59V59a3.009,3.009,0,0,0,3,3H59a3.009,3.009,0,0,0,3-3V45A3.009,3.009,0,0,0,59,42Zm-3-3v3H54V39a3.009,3.009,0,0,0-3-3H47a3.009,3.009,0,0,0-3,3v3H42V39a5,5,0,0,1,5-5h4A5,5,0,0,1,56,39Zm-4,0v3H46V39a1,1,0,0,1,1-1h4A1,1,0,0,1,52,39ZM36,45v7.97l-8,6.72L12.2,46.42A22.922,22.922,0,0,1,4,28.82V11.73L28,4.05l24,7.68V28.82a23.277,23.277,0,0,1-.25,3.22A6.282,6.282,0,0,0,51,32H47a7.008,7.008,0,0,0-7,7v3H39A3.009,3.009,0,0,0,36,45ZM60,59a1,1,0,0,1-1,1H39a1,1,0,0,1-1-1V45a1,1,0,0,1,1-1H59a1,1,0,0,1,1,1Z"/><path d="M53.243,47.03l-4-1a1,1,0,0,0-.486,0l-4,1A1,1,0,0,0,44,48v3.343a4.966,4.966,0,0,0,1.464,3.535l2.829,2.829a1,1,0,0,0,1.414,0l2.829-2.829A4.966,4.966,0,0,0,54,51.343V48A1,1,0,0,0,53.243,47.03ZM52,51.343a3.02,3.02,0,0,1-.878,2.121L49,55.586l-2.122-2.122A3.02,3.02,0,0,1,46,51.343V48.781l3-.75,3,.75Z"/></g></svg>
